<svg width="57" height="29" viewBox="0 0 57 29" fill="none" xmlns="http://www.w3.org/2000/svg">
<path fill-rule="evenodd" clip-rule="evenodd" d="M15.4176 9.48267C15.699 9.48267 15.9407 9.6221 16.1428 9.90122C16.2224 10.019 16.326 10.2545 16.4546 10.6078L16.6749 11.2996C16.7116 11.4287 16.73 11.5577 16.73 11.6868V11.9636V12.2217V12.7383C16.73 12.9474 16.7637 13.1227 16.8315 13.264L17.0067 13.7435C17.0621 13.8912 17.0899 14.0264 17.0899 14.1494C17.0899 14.2108 17.0746 14.2723 17.044 14.3338C17.0258 14.3891 16.9954 14.4169 16.9528 14.4169C16.8249 14.4169 16.7093 14.38 16.6059 14.3058C16.4718 14.1889 16.3654 13.9331 16.2862 13.5389L16.2132 13.1413L16.1675 12.7347V11.9951C16.1675 11.7179 16.0938 11.3512 15.9468 10.8954C15.781 10.4024 15.6062 10.1558 15.4223 10.1558C15.2445 10.1558 15.0725 10.2515 14.9072 10.4425L14.677 10.8031L14.2079 11.4598C13.9257 11.8171 13.6805 12.3072 13.4718 12.9298L13.3889 13.1792L13.2603 13.475C13.1314 13.7278 12.9993 13.8542 12.8646 13.8542C12.6806 13.8542 12.561 13.7911 12.5059 13.6651C12.4505 13.5393 12.4232 13.3532 12.4232 13.1071V12.7015L12.3954 12.2955L12.2847 11.3272C12.211 10.8662 12.097 10.6356 11.9434 10.6356C11.7773 10.6356 11.6021 10.8476 11.4179 11.2718C11.3256 11.4996 11.2118 11.8529 11.0764 12.3324L10.9381 12.9413L10.9014 13.4022C10.9014 13.5747 10.9134 13.719 10.9381 13.8356L11.0488 14.38C11.0488 14.5154 11.0243 14.6289 10.9751 14.7212C10.9259 14.8133 10.8644 14.8595 10.7907 14.8595C10.6308 14.8595 10.5078 14.795 10.4218 14.6657L10.3479 14.4261C10.3295 14.3338 10.3203 14.217 10.3203 14.0756L10.3665 13.2824L10.3848 12.7658C10.3848 12.0281 10.5323 11.4317 10.8274 10.9767L11.5192 10.2573C11.7159 10.0237 11.9281 9.90687 12.1556 9.90687C12.2908 9.90687 12.406 9.96387 12.5014 10.0774C12.5965 10.1914 12.6627 10.3681 12.6997 10.6078C12.6997 10.7678 12.7211 10.8876 12.7642 10.9675L12.9025 11.1889C12.9211 11.2442 12.9303 11.3305 12.9303 11.447L12.9211 11.6317V11.7605V11.8807L12.9668 12.0465L12.9946 12.2495L13.013 12.4156L13.0222 12.4523L13.0403 12.4709L13.0679 12.4429L13.1413 12.3506L13.2516 12.0637C13.3983 11.6753 13.5451 11.367 13.692 11.1385L14.2154 10.4726L14.7201 9.8249C14.9465 9.59667 15.179 9.48267 15.4176 9.48267Z" fill="white"/>
<path fill-rule="evenodd" clip-rule="evenodd" d="M18.2793 12.8229L18.3991 12.5162L18.4453 12.284C18.4637 12.1973 18.4945 12.1198 18.5374 12.0515L18.6573 11.8845C18.7004 11.8223 18.7527 11.717 18.8142 11.5684C18.8328 11.5126 18.8756 11.4815 18.9432 11.4754L19.0631 11.4659L19.2845 11.3823L19.3769 11.4285L19.4781 11.5024L19.8472 11.6315C19.9271 11.6499 19.9671 11.7422 19.9671 11.908C19.9671 12.0557 19.9118 12.1294 19.8011 12.1294L19.6904 12.1017L19.469 12.0004C19.3769 11.945 19.306 11.9175 19.2567 11.9175C19.1646 11.9175 19.0692 12.0041 18.971 12.178C18.9524 12.2027 18.9187 12.2929 18.8695 12.4479L18.8142 12.727V12.9409V13.2016V13.3505V13.4993V13.6296L18.7496 13.8715L18.7126 14.188V14.3833L18.7459 14.579L18.768 14.7277L18.7496 14.8207C18.7188 14.9137 18.6573 14.979 18.5652 15.0162H18.4729H18.3716C18.23 14.979 18.1594 14.9078 18.1594 14.8026L18.1961 14.5795L18.2239 14.4401L18.2517 14.2542C18.2517 14.1923 18.2345 14.1148 18.2001 14.0218L18.1318 13.9103C18.1071 13.8793 18.0948 13.8451 18.0948 13.8081L18.1318 13.7059V13.5756C18.1318 13.4953 18.0918 13.4023 18.0119 13.2968L17.9196 13.1948L17.8367 13.0831L17.7166 12.8509L17.5691 12.7487C17.4954 12.6929 17.4551 12.6434 17.4492 12.5998C17.4492 12.5131 17.4676 12.4418 17.5046 12.3862C17.5415 12.3306 17.612 12.3026 17.7166 12.3026C17.8028 12.3026 17.8979 12.3428 18.0025 12.4234C18.1318 12.5287 18.2239 12.6618 18.2793 12.8229Z" fill="white"/>
<path fill-rule="evenodd" clip-rule="evenodd" d="M20.881 14.4907L21.0932 14.5183C21.1606 14.5308 21.2068 14.555 21.2315 14.5922V14.7213V14.8782V15.0256C21.2131 15.0376 21.1976 15.0468 21.1853 15.0532C21.1361 15.084 21.0932 15.1085 21.0563 15.1269L20.8996 15.1545C20.8012 15.1545 20.7072 15.1283 20.6182 15.0763C20.5289 15.024 20.4844 14.955 20.4844 14.8685C20.4844 14.8381 20.503 14.7859 20.5397 14.7119L20.6412 14.5642C20.6905 14.5152 20.7703 14.4907 20.881 14.4907Z" fill="white"/>
<path fill-rule="evenodd" clip-rule="evenodd" d="M27.2155 8.65259C27.6826 8.65259 28.0517 8.78732 28.3223 9.05653C28.5557 9.27676 28.6728 9.5123 28.6728 9.76338C28.6728 9.88586 28.6419 9.97748 28.5804 10.0387L28.4052 10.2222L28.359 10.4335C28.3407 10.5315 28.3039 10.5894 28.2486 10.6078C28.1501 10.6078 28.0502 10.5894 27.9487 10.5529C27.8472 10.5164 27.7966 10.4488 27.7966 10.3513C27.7966 10.2962 27.8503 10.2215 27.9579 10.1268C28.0653 10.0321 28.1284 9.95417 28.1471 9.89293L28.1746 9.77398V9.6548C28.1372 9.51442 28.0248 9.40442 27.8376 9.32481C27.6626 9.23955 27.4659 9.19668 27.2475 9.19668C27.1602 9.19668 27.0914 9.2167 27.0414 9.25651C26.9915 9.29655 26.9665 9.39005 26.9665 9.53727C26.9665 9.68471 27.0063 9.83828 27.0864 9.99774C27.3691 10.4151 27.6305 10.8358 27.8703 11.2593C27.9996 11.4802 28.1379 11.7829 28.2853 12.1663C28.433 12.55 28.5067 12.8433 28.5067 13.0456C28.5067 13.6168 28.2884 14.0987 27.8519 14.4913C27.4583 14.8291 26.9449 14.9977 26.3117 14.9977C25.8136 14.9977 25.408 14.8133 25.0943 14.4444C24.8361 14.1309 24.707 13.8019 24.707 13.4575C24.707 13.1565 24.8144 12.8428 25.0297 12.5168C25.2695 12.1296 25.5463 11.9357 25.8598 11.9357C26.0133 11.9357 26.1273 11.9727 26.201 12.0464C26.2439 12.0895 26.2656 12.1604 26.2656 12.2587C26.2656 12.3265 26.2102 12.3939 26.0995 12.4615L25.8506 12.5352C25.6661 12.5908 25.5154 12.7443 25.3986 12.9964C25.3248 13.1749 25.2879 13.3438 25.2879 13.5037C25.2879 13.8236 25.4139 14.0725 25.6661 14.2508C25.8013 14.337 25.9443 14.4013 26.0951 14.4444C26.2456 14.4873 26.4192 14.509 26.6161 14.509H26.7543H26.9757C27.0127 14.4967 27.0525 14.4628 27.0956 14.4077L27.1971 14.1769L27.5106 14.0202C27.769 13.8787 27.8979 13.5468 27.8979 13.0242C27.8979 12.8089 27.8519 12.5908 27.7598 12.3694L27.6767 12.2125L27.4645 11.8714L27.1693 11.3363L27.0035 10.995L26.8742 10.6999C26.8434 10.6078 26.8005 10.531 26.7451 10.4693L26.6069 10.2481L26.5054 9.99915L26.4408 9.65786L26.3763 9.31657C26.3763 9.12602 26.4531 8.96303 26.6069 8.82783C26.7604 8.711 26.9632 8.65259 27.2155 8.65259Z" fill="white"/>
<path fill-rule="evenodd" clip-rule="evenodd" d="M29.1902 12.4062C29.3132 12.4062 29.4177 12.4981 29.5039 12.6814C29.5777 12.8651 29.6146 13.1006 29.6146 13.388V13.7182V13.8833V14.076C29.6146 14.1311 29.633 14.1678 29.6698 14.1862H29.7345C29.7899 14.1862 29.8405 14.1247 29.8867 14.0018C29.9326 13.8788 29.9651 13.7943 29.9835 13.7481C30.0019 13.7019 30.0433 13.6329 30.1079 13.5406C30.1726 13.4483 30.2541 13.3531 30.3526 13.2547C30.4753 13.1319 30.5921 13.0702 30.7028 13.0702C30.8689 13.0702 31.0133 13.1315 31.1364 13.2535C31.2224 13.3512 31.3239 13.5222 31.4408 13.7665L31.6711 14.2705C31.7634 14.4111 31.9048 14.4813 32.0956 14.4813C32.2369 14.4813 32.389 14.4481 32.5518 14.3815C32.7148 14.3148 32.8578 14.2175 32.9809 14.0901L33.1562 13.9266C33.2238 13.8781 33.2944 13.8447 33.3682 13.8265C33.4113 13.8265 33.4558 13.8524 33.5019 13.9043C33.5481 13.9563 33.5804 14.0218 33.5988 14.1009C33.5988 14.1928 33.488 14.3299 33.2669 14.5129L33.1008 14.6318L32.8241 14.7965L32.3815 14.9338C32.1599 14.9889 32.0093 15.0162 31.9295 15.0162C31.7818 15.0162 31.6436 14.9797 31.5145 14.9062C31.3484 14.8085 31.2224 14.6436 31.1364 14.4116L30.9979 13.9351C30.912 13.709 30.8227 13.5959 30.7304 13.5959C30.6689 13.5959 30.5768 13.676 30.4539 13.8357C30.4044 13.9033 30.3601 13.9773 30.3201 14.0571C30.28 14.1372 30.2449 14.2201 30.2141 14.3061C30.1401 14.6012 30.0355 14.8043 29.9006 14.9147C29.8205 14.9826 29.7312 15.0162 29.633 15.0162C29.5039 15.0162 29.3963 14.9764 29.3103 14.8968C29.2364 14.8111 29.1996 14.7009 29.1996 14.5659V14.3084L29.1443 14.1342L29.1073 13.84V13.4264V13.1873L29.1443 12.9485V12.8012L29.1073 12.7004L29.0703 12.4981C29.0703 12.443 29.1104 12.4124 29.1902 12.4062Z" fill="white"/>
<path fill-rule="evenodd" clip-rule="evenodd" d="M34.595 12.1204L34.3828 12.2033L34.1522 12.3693C34.0969 12.4247 34.0538 12.497 34.0231 12.586C33.9923 12.6753 33.9678 12.7752 33.9494 12.8859C33.931 12.9966 33.9219 13.1012 33.9219 13.1994V13.4208L33.9494 13.6697L34.0137 13.845L34.0415 14.0019L34.0137 14.1401L33.9953 14.26C33.9953 14.3523 34.037 14.4369 34.1199 14.5137C34.2029 14.5905 34.3121 14.6289 34.4473 14.6289C34.6994 14.6289 34.9453 14.5123 35.1853 14.2784C35.474 14.0019 35.6187 13.6606 35.6187 13.2547C35.6187 13.1379 35.5848 13.015 35.5172 12.8859C35.4679 12.7568 35.4034 12.6492 35.3235 12.563L35.01 12.2956C34.8376 12.191 34.6994 12.1326 34.595 12.1204ZM34.641 11.613C34.8131 11.613 34.9361 11.6316 35.01 11.6684L35.4896 12.1112L35.8954 12.5078C36.0615 12.7415 36.1444 13.0088 36.1444 13.3101C36.1444 13.882 35.926 14.3585 35.4896 14.7396C35.1328 15.0469 34.807 15.2007 34.5119 15.2007C34.0323 15.2007 33.7002 14.9979 33.5158 14.5921C33.4298 14.383 33.3867 14.0881 33.3867 13.7067C33.3867 13.344 33.3959 13.0979 33.4143 12.9688L33.4882 12.6275C33.562 12.2956 33.6941 12.0436 33.8846 11.8714C34.0752 11.6992 34.3275 11.613 34.641 11.613Z" fill="white"/>
<path fill-rule="evenodd" clip-rule="evenodd" d="M37.9056 12.1204L37.6934 12.2033L37.4628 12.3693C37.4074 12.4247 37.3643 12.497 37.3337 12.586C37.3028 12.6753 37.2783 12.7752 37.26 12.8859C37.2416 12.9966 37.2324 13.1012 37.2324 13.1994V13.4208L37.26 13.6697L37.3243 13.845L37.3521 14.0019L37.3243 14.1401L37.3059 14.26C37.3059 14.3523 37.3476 14.4369 37.4305 14.5137C37.5134 14.5905 37.6227 14.6289 37.7579 14.6289C38.0099 14.6289 38.2558 14.5123 38.4958 14.2784C38.7846 14.0019 38.9292 13.6606 38.9292 13.2547C38.9292 13.1379 38.8953 13.015 38.8277 12.8859C38.7785 12.7568 38.7139 12.6492 38.6341 12.563L38.3206 12.2956C38.1482 12.191 38.0099 12.1326 37.9056 12.1204ZM37.9515 11.613C38.1237 11.613 38.2466 11.6316 38.3206 11.6684L38.8001 12.1112L39.206 12.5078C39.372 12.7415 39.4549 13.0088 39.4549 13.3101C39.4549 13.882 39.2366 14.3585 38.8001 14.7396C38.4433 15.0469 38.1176 15.2007 37.8224 15.2007C37.3429 15.2007 37.0108 14.9979 36.8263 14.5921C36.7404 14.383 36.6973 14.0881 36.6973 13.7067C36.6973 13.344 36.7065 13.0979 36.7248 12.9688L36.7988 12.6275C36.8725 12.2956 37.0046 12.0436 37.1952 11.8714C37.3857 11.6992 37.638 11.613 37.9515 11.613Z" fill="white"/>
<path fill-rule="evenodd" clip-rule="evenodd" d="M41.0687 14.0939C41.1424 14.2072 41.2685 14.3047 41.4468 14.3866C41.6373 14.4559 41.785 14.4905 41.8896 14.4905C42.037 14.4905 42.1925 14.397 42.3552 14.2097C42.518 14.0225 42.6148 13.8529 42.6456 13.7005V13.5957V13.4282C42.6456 13.3694 42.6303 13.3225 42.5997 13.2869C42.5505 13.2224 42.4706 13.1901 42.3597 13.1901C42.1018 13.1901 41.8835 13.2794 41.7051 13.4574C41.3547 13.8263 41.1424 14.0385 41.0687 14.0939ZM40.506 12.406C40.6351 12.406 40.7027 12.4465 40.7091 12.5268L40.6999 12.7685L40.6629 13.1496L40.6351 13.4471L40.6537 13.5401L40.6907 13.5957H40.8012C40.8626 13.5773 40.9488 13.522 41.0595 13.4299L41.3547 13.1439L41.5391 12.9317C41.5822 12.8889 41.6434 12.8549 41.7235 12.8304L41.9357 12.7935L42.0554 12.7565L42.2123 12.6919C42.323 12.6366 42.4304 12.609 42.5352 12.609C42.7196 12.609 42.8887 12.6776 43.0425 12.8144C43.1959 12.9513 43.2729 13.1225 43.2729 13.3281V13.5055L43.2171 13.6548L43.1339 13.8791L43.0687 14.0939L42.9575 14.2741L42.8275 14.463C42.7344 14.649 42.6664 14.7571 42.6233 14.7871L42.4746 14.8499L42.3632 14.8408L42.2518 14.8685C42.2021 14.8685 42.1557 14.8897 42.1126 14.9321C42.0691 14.9748 42.0135 15.0059 41.9456 15.0254L41.7318 14.9969L41.4998 14.9025L40.8035 14.6288C40.7168 14.7644 40.6396 14.9402 40.5715 15.1557C40.491 15.5193 40.4509 15.9972 40.4509 16.5889V17.3565C40.4509 17.6893 40.4168 17.9115 40.3494 18.0222C40.294 18.1517 40.2295 18.2162 40.1558 18.2162C40.0821 18.2162 39.9973 18.1932 39.9021 18.147C39.8067 18.1006 39.7528 18.0436 39.7405 17.976L39.7683 17.837C39.7683 17.7075 39.7497 17.618 39.713 17.5687C39.6701 17.544 39.6484 17.4547 39.6484 17.3005C39.6484 17.1462 39.6762 17.0044 39.7313 16.8749C39.7806 16.7825 39.8237 16.6374 39.8604 16.4401V16.2921L39.842 16.07L39.8604 15.9777C39.8729 15.9282 39.9052 15.8741 39.9572 15.8156C40.0095 15.757 40.0448 15.6816 40.0635 15.5888V15.2466V14.9606L40.0726 14.7211C40.0726 14.5982 40.0849 14.466 40.1096 14.3245L40.1558 13.6605L40.1372 13.4115L40.1188 13.0886C40.1188 12.8955 40.1633 12.7348 40.2526 12.6072C40.3416 12.4795 40.4259 12.4124 40.506 12.406Z" fill="white"/>
<path fill-rule="evenodd" clip-rule="evenodd" d="M46.7002 15.2649L46.5643 16.3995C46.5089 16.8793 46.352 17.3497 46.0939 17.8109C45.7679 18.4009 45.3929 18.696 44.9687 18.696C44.7165 18.696 44.4508 18.6084 44.171 18.4334C43.8912 18.2581 43.6961 18.0259 43.5852 17.7369C43.5668 17.657 43.5454 17.6017 43.5209 17.5711L43.4286 17.451C43.3548 17.3775 43.3089 17.3127 43.2901 17.2573L43.2441 17.0915L43.198 16.9255L43.1426 16.7594L43.0597 16.6212C43.0044 16.5472 42.9766 16.4857 42.9766 16.4367C42.9766 16.3383 42.9921 16.2507 43.023 16.1736C43.0538 16.0966 43.0997 16.0585 43.1612 16.0585C43.2597 16.0585 43.3518 16.0921 43.4377 16.16C43.5607 16.2521 43.6224 16.372 43.6224 16.5196V16.7778V16.8979L43.7145 17.0454L43.8528 17.2114L44.0188 17.4974C44.1354 17.706 44.2739 17.8737 44.4338 17.9998C44.5938 18.1258 44.7443 18.1889 44.8858 18.1889C45.1868 18.1889 45.4728 17.9981 45.7434 17.617C46.0385 17.2114 46.186 16.7286 46.186 16.1692L46.2046 15.6988L46.2232 15.293L46.3146 14.2969L46.3153 13.982V13.6025C46.3153 13.4383 46.2939 13.3561 46.2515 13.3561L46.169 13.4105L45.9222 13.6468C45.8675 13.6892 45.7759 13.7285 45.648 13.7648L45.429 13.8105L45.3008 13.8649C45.1607 13.9254 45.0144 13.9556 44.862 13.9556C44.4842 13.9556 44.2956 13.8275 44.2956 13.5707C44.2956 13.473 44.3354 13.3535 44.4155 13.2129C44.4461 13.1703 44.4922 13.0634 44.5537 12.8921L44.6644 12.4978C44.6644 12.4307 44.6244 12.397 44.5445 12.397C44.4892 12.397 44.3693 12.4432 44.1849 12.5353C44.1418 12.5539 44.0789 12.5784 43.996 12.6093C43.9128 12.6399 43.8589 12.6585 43.8344 12.6644C43.7668 12.6644 43.6961 12.6368 43.6224 12.5812C43.5668 12.5261 43.5362 12.4644 43.5301 12.3963C43.5301 12.341 43.616 12.2823 43.7882 12.2209L44.1571 12.0821C44.2124 12.0637 44.243 12.0531 44.2494 12.0499C44.2555 12.0468 44.2617 12.0423 44.2678 12.0362L45.0057 11.6848C45.1593 11.6172 45.2731 11.5833 45.347 11.5833C45.3838 11.5833 45.4269 11.6016 45.4761 11.6386L45.559 11.7587L45.4669 11.9432L45.1993 12.3956C45.0641 12.6297 44.9504 12.9129 44.8583 13.2452C44.8397 13.3069 44.8397 13.3592 44.8583 13.4023C44.8766 13.4084 44.892 13.4115 44.9044 13.4115C44.9723 13.4362 45.0156 13.4485 45.0342 13.4485C45.1762 13.4485 45.3152 13.4148 45.4511 13.347C45.6737 13.2487 45.8991 13.1041 46.1276 12.9136L46.2298 12.7937L46.3871 12.5447C46.455 12.4279 46.5384 12.3695 46.6373 12.3695C46.6931 12.3695 46.7301 12.4032 46.7487 12.4708L46.7857 12.7195V12.9776L46.7671 13.2358L46.7487 13.4845L46.7765 13.8536L46.7857 14.2413V14.6379L46.7475 14.8593L46.7002 15.2649Z" fill="white"/>
<mask id="mask0_29:6562" style="mask-type:alpha" maskUnits="userSpaceOnUse" x="0" y="0" width="57" height="29">
<path fill-rule="evenodd" clip-rule="evenodd" d="M0 0.235596H56.9079V28.2185H0V0.235596Z" fill="white"/>
</mask>
<g mask="url(#mask0_29:6562)">
<path fill-rule="evenodd" clip-rule="evenodd" d="M46.2609 7.65438C46.3313 7.54533 46.0847 7.11736 46.2251 7.05871C46.4362 6.97015 46.8625 7.34017 47.0292 7.29307C47.1835 7.24926 47.0787 6.7876 47.2608 6.73555C47.4087 6.69315 47.8616 7.06177 48.027 7.08956C48.4154 7.15457 48.1775 6.72472 47.795 6.38083C47.6049 6.21007 47.4445 6.0605 47.1781 6.00327C46.9831 5.96158 46.8363 6.05485 46.7414 6.2063C46.5737 6.4741 46.3083 6.41428 46.0565 6.32807C45.8143 6.2454 45.5218 6.29345 45.4584 6.43147C45.3564 6.65335 45.4617 6.95766 45.5769 7.22099C45.7618 7.64378 46.0638 7.95987 46.2609 7.65438ZM51.1716 19.1714C51.8085 20.2022 51.2682 21.5555 49.9866 22.1194C49.4395 22.3604 48.6302 22.4419 47.9059 22.3672C48.2828 22.3674 48.6862 22.3173 49.1152 22.1957C50.649 21.7607 50.8826 20.4283 50.8299 19.7169C50.7837 19.0944 50.322 19.3236 50.3296 19.5987C50.3484 20.2794 50.2575 21.3561 48.8269 21.7986C47.4982 22.2092 45.6669 21.1695 44.9278 20.6148C44.5877 20.36 44.4152 20.8021 44.7952 21.174C45.0093 21.6055 45.6405 22.0773 46.2082 22.436C47.0535 22.9704 48.597 23.3675 50.3675 22.6131C51.6552 22.0645 52.0909 21.0388 52.0648 19.944C52.0568 19.614 51.878 19.1189 51.7021 18.9277C51.3888 18.5866 50.9377 18.7934 51.1716 19.1714ZM52.4383 23.1789C50.457 24.9826 47.0229 25.0514 45.0503 23.6514C43.6399 22.6506 42.8661 20.7371 42.4193 19.8667C42.1112 19.2661 41.3347 19.2661 41.3347 19.2661H29.1854L30.2828 18.0512C30.3843 17.9393 30.3271 17.8484 30.1554 17.8484C29.9839 17.8484 29.7625 17.9393 29.661 18.0512L28.5636 19.2661H27.6264L28.724 18.0512C28.8253 17.9393 28.768 17.8484 28.5963 17.8484C28.4246 17.8484 28.2035 17.9393 28.1022 18.0512L27.0046 19.2661H25.3994L26.4968 18.0512C26.598 17.9393 26.541 17.8484 26.3693 17.8484C26.1976 17.8484 25.9762 17.9393 25.8752 18.0512L24.7776 19.2661H23.6175L24.7151 18.0512C24.8164 17.9393 24.7592 17.8484 24.5875 17.8484C24.416 17.8484 24.1946 17.9393 24.0933 18.0512L22.996 19.2661H21.8359L22.9333 18.0512C23.0348 17.9393 22.9776 17.8484 22.8059 17.8484C22.6342 17.8484 22.413 17.9393 22.3117 18.0512L21.2141 19.2661H18.4953L19.5927 18.0512C19.6942 17.9393 19.637 17.8484 19.4653 17.8484C19.2936 17.8484 19.0724 17.9393 18.9711 18.0512L17.8735 19.2661H16.9363L18.0339 18.0512C18.1352 17.9393 18.0779 17.8484 17.9062 17.8484C17.7345 17.8484 17.5134 17.9393 17.4121 18.0512L16.3145 19.2661H15.5275C15.5275 19.2661 15.5096 19.2664 15.4814 19.2685L16.5884 18.043C16.6857 17.9356 16.6308 17.8484 16.4662 17.8484C16.3018 17.8484 16.0898 17.9356 15.9927 18.043L11.3373 23.1958C11.2403 23.3032 11.2949 23.3902 11.4596 23.3902C11.6242 23.3902 11.8362 23.3032 11.9333 23.1958L14.666 20.1708C14.495 21.1815 13.9709 22.9144 12.4222 24.7308C10.5243 26.9574 6.07685 27.6767 3.6666 25.888C2.08049 24.711 1.15672 22.4393 1.51356 19.8451C1.80021 17.7596 3.36158 15.5479 3.98128 14.7389C4.89092 15.4127 5.83048 15.2823 5.13447 14.146C5.15967 14.1276 5.18535 14.109 5.20395 14.0888L7.19613 11.8835C7.29741 11.7713 7.24041 11.6807 7.0687 11.6807C6.897 11.6807 6.67583 11.7713 6.57454 11.8835L4.8702 13.7699C4.78352 13.6587 4.68601 13.5409 4.57366 13.4154C4.56965 13.4109 4.56494 13.4062 4.56094 13.402L6.52814 11.2244C6.62942 11.1123 6.57219 11.0214 6.40072 11.0214C6.22901 11.0214 6.00761 11.1123 5.90633 11.2244L4.24296 13.0656C4.13556 12.9561 4.02391 12.8435 3.90709 12.7271L5.85992 10.5654C5.96121 10.4533 5.90421 10.3626 5.7325 10.3626C5.56079 10.3626 5.33939 10.4533 5.23811 10.5654L3.58134 12.3995C3.47158 12.2881 3.36111 12.1741 3.24994 12.0559L5.19194 9.90635C5.29299 9.79424 5.23599 9.70332 5.06428 9.70332C4.89257 9.70332 4.6714 9.79424 4.57012 9.90635L2.93809 11.7127C2.83351 11.5937 2.73105 11.4698 2.63024 11.3431L4.52372 9.24732C4.625 9.1352 4.56777 9.04429 4.39606 9.04429C4.22435 9.04429 4.00318 9.1352 3.9019 9.24732L2.3483 10.967C2.25432 10.8339 2.16317 10.6978 2.07767 10.5562L3.8555 8.58829C3.95678 8.47617 3.89978 8.38525 3.72808 8.38525C3.55637 8.38525 3.33497 8.47617 3.23369 8.58829L1.84284 10.1278C1.75687 9.95511 1.68055 9.77492 1.61248 9.58955L3.4101 7.59974C3.51138 7.48762 3.45438 7.3967 3.28268 7.3967C3.11097 7.3967 2.88957 7.48762 2.78852 7.59974L1.45279 9.0782C1.42099 8.95125 1.39532 8.821 1.37341 8.68815C1.38825 8.67567 1.40615 8.6646 1.41793 8.65141L3.4101 6.44631C3.51138 6.33419 3.45438 6.24328 3.28268 6.24328C3.11097 6.24328 2.88957 6.33419 2.78852 6.44631L1.31076 8.08188C1.29898 7.83056 1.30699 7.57807 1.32748 7.32581L3.1887 5.2658C3.29021 5.15368 3.23298 5.06277 3.06127 5.06277C2.88957 5.06277 2.6684 5.15368 2.56711 5.2658L1.44525 6.50731C1.48765 6.3024 1.53899 6.10031 1.59811 5.90104C1.67396 5.86595 1.74273 5.82284 1.78678 5.77409L3.77895 3.56875C3.88023 3.45664 3.82323 3.36572 3.65153 3.36572C3.47982 3.36572 3.25865 3.45664 3.15737 3.56875L1.9844 4.86703C2.5226 3.69265 3.3034 2.74838 4.0477 2.36304C6.36044 1.16486 9.42478 1.50027 11.4883 2.81527C13.2574 3.94255 14.4198 5.88762 14.8688 6.69033C15.096 7.09686 15.874 7.09686 15.874 7.09686H39.2612H40.7863C40.7863 7.09686 41.2977 7.168 41.5685 6.69245C42.0083 5.92012 43.0336 4.26736 44.9012 3.20791C46.0916 2.53239 47.4965 2.08628 48.9743 2.10465L47.745 3.46512C47.6437 3.57723 47.7008 3.66815 47.8727 3.66815C48.0442 3.66815 48.2656 3.57723 48.3666 3.46512L49.5664 2.13716C49.7617 2.15624 49.9579 2.18379 50.1548 2.22054L48.6306 3.90793C48.5291 4.01981 48.5861 4.11072 48.7581 4.11072C48.9295 4.11072 49.151 4.01981 49.252 3.90793L50.6704 2.33807C50.8242 2.37929 50.9785 2.42616 51.1328 2.47892L49.4421 4.3505C49.3408 4.46262 49.3978 4.55353 49.5695 4.55353C49.7412 4.55353 49.9626 4.46262 50.0639 4.3505L51.5951 2.65534C51.7459 2.71917 51.8966 2.79007 52.0466 2.86591L50.1103 5.00953C50.0088 5.12165 50.066 5.21257 50.2377 5.21257C50.4092 5.21257 50.6306 5.12165 50.7319 5.00953L52.4643 3.09203C52.6096 3.17729 52.7547 3.26986 52.8995 3.36737C52.8489 3.39634 52.8025 3.4279 52.7707 3.46347L51.576 4.7853C51.2133 4.68779 50.8383 4.89153 51.1386 5.26957L50.7783 5.66857C50.677 5.78068 50.734 5.8716 50.9059 5.8716C51.0774 5.8716 51.2988 5.78068 51.3999 5.66857L51.4839 5.57553C51.6166 5.67163 51.7416 5.77008 51.8594 5.87089L51.4465 6.32784C51.3452 6.43972 51.4022 6.53063 51.5739 6.53063C51.7456 6.53063 51.967 6.43972 52.0681 6.32784L52.196 6.18628C52.3107 6.30334 52.4174 6.42252 52.5144 6.54429L52.1147 6.98687C52.0134 7.09898 52.0704 7.18967 52.2421 7.18967C52.4136 7.18967 52.635 7.09898 52.7363 6.98687L52.7893 6.92822C52.8809 7.07355 52.9617 7.22076 53.0319 7.36985L52.7825 7.6459C52.6814 7.75802 52.7384 7.84893 52.9101 7.84893C53.0006 7.84893 53.1037 7.82279 53.1968 7.78251C53.275 8.01593 53.3296 8.2517 53.3607 8.48771L53.2281 8.63445C53.1268 8.74657 53.1841 8.83725 53.3555 8.83725C53.3659 8.83725 53.3774 8.83419 53.3883 8.83348C53.3894 8.86693 53.3918 8.90061 53.3923 8.93405C53.3953 9.18278 53.3727 9.43033 53.331 9.67411L53.2281 9.78788C53.1471 9.87738 53.1687 9.95252 53.2679 9.9796C53.0083 11.0341 52.3689 11.9953 51.5914 12.6421C50.9281 13.1937 51.3921 13.6285 52.0422 13.1897C52.66 12.7726 53.2246 12.0528 53.6106 11.1914C53.7072 11.1542 53.7957 11.1019 53.8499 11.0421L55.5804 9.12649C55.5295 9.43716 55.4544 9.74619 55.3588 10.0517C55.2189 10.0823 55.0752 10.1544 54.9991 10.2387L53.0069 12.4438C52.9054 12.5561 52.9627 12.6468 53.1344 12.6468C53.3058 12.6468 53.5272 12.5561 53.6285 12.4438L55.046 10.8751C54.891 11.2192 54.7101 11.5556 54.5047 11.8797C53.6754 13.189 52.1041 14.374 51.2861 15.1555C49.9011 16.4793 50.1188 17.1432 50.6457 16.9355C50.995 16.7977 51.5546 16.4705 52.143 16.0619C52.5985 16.3615 53.3273 16.9767 53.6683 18.0091C54.2152 19.6651 53.9828 21.7725 52.4383 23.1789ZM53.633 3.91853C53.6528 3.93501 53.6712 3.95244 53.6907 3.96917C53.5892 4.00638 53.4952 4.06008 53.4389 4.1225L52.3823 5.29194C52.26 5.19443 52.1303 5.10116 51.9939 5.01118L53.2524 3.61845C53.3798 3.71408 53.5067 3.81253 53.633 3.91853ZM54.3549 4.62938C54.2548 4.66659 54.1625 4.72006 54.1069 4.78153L53.0573 5.9432C52.9563 5.82402 52.8451 5.70931 52.7285 5.59696L53.9698 4.22308C54.1071 4.35545 54.2355 4.49088 54.3549 4.62938ZM54.8856 5.35389C54.8422 5.38027 54.8034 5.40924 54.7749 5.44057L53.601 6.74003C53.5242 6.59635 53.4361 6.45573 53.3412 6.31724L54.5959 4.92827C54.7007 5.06771 54.7972 5.20974 54.8856 5.35389ZM55.3541 6.33043C55.3015 6.3601 55.2535 6.39261 55.2203 6.42912L53.9992 7.78086C53.9507 7.58443 53.8881 7.38893 53.8113 7.19579L55.1107 5.75689C55.205 5.94532 55.285 6.13681 55.3541 6.33043ZM55.6115 7.39176C55.4622 7.4179 55.3025 7.49186 55.2203 7.58254L54.1274 8.79226C54.1257 8.64741 54.118 8.50184 54.1017 8.35558L55.4996 6.80833C55.5479 7.00124 55.5849 7.19579 55.6115 7.39176ZM55.6402 8.64269C55.4831 8.66319 55.3077 8.74021 55.2203 8.83678L53.943 10.2507C54.0049 10.0152 54.0508 9.77398 54.0826 9.52996L55.652 7.79288C55.6692 8.07505 55.6645 8.35911 55.6402 8.64269ZM53.3256 15.1487C53.5025 14.9956 53.6704 14.8423 53.8209 14.6913C56.5016 12.0055 58.9147 7.02927 54.349 2.84118C51.2915 0.0364016 47.1475 0.542571 44.4845 2.02457C42.627 3.05811 41.4894 4.60582 41.0489 5.35271C40.7863 5.79811 40.1749 5.79811 40.1749 5.79811H16.2907C16.2907 5.79811 15.874 5.79811 15.6154 5.34847C15.1406 4.52362 13.9158 2.55241 11.8989 1.40299C9.56893 0.0750297 5.68068 -0.327503 3.25041 1.30265C-0.686831 3.94396 -0.384166 8.1337 0.803648 10.8527C1.23609 11.8422 2.10805 12.8025 2.89852 13.6486C2.16034 14.6265 1.22432 16.2543 0.781978 17.2667C-0.405836 19.9859 -0.725695 25.0481 3.39762 27.3884C5.98806 28.8584 9.84733 28.209 12.0918 26.7414C14.1605 25.3884 15.2857 22.5667 15.6604 21.2432C15.874 20.4881 16.4718 20.4881 16.4718 20.4881H40.4865C40.4865 20.4881 41.1764 20.4881 41.4727 21.2176C41.871 22.1988 42.7326 24.0263 44.4953 25.0073C47.1583 26.4891 51.1704 26.418 53.1282 24.4732C56.6891 20.9361 55.14 16.5935 53.3256 15.1487ZM14.9074 17.8484C14.7427 17.8484 14.5308 17.9356 14.4337 18.043L9.77832 23.1958C9.68128 23.3032 9.73616 23.3902 9.90057 23.3902C10.0652 23.3902 10.2772 23.3032 10.3742 23.1958L15.0294 18.043C15.1264 17.9356 15.0718 17.8484 14.9074 17.8484Z" fill="white"/>
</g>
</svg>
