<svg version="1.1" xmlns="http://www.w3.org/2000/svg" xmlns:xlink="http://www.w3.org/1999/xlink" width="195" height="39" viewBox="0,0,256,51.1875"><g fill="#ffffff" fill-rule="nonzero" stroke="none" stroke-width="1" stroke-linecap="butt" stroke-linejoin="miter" stroke-miterlimit="10" stroke-dasharray="" stroke-dashoffset="0" font-family="none" font-weight="none" font-size="none" text-anchor="none" style="mix-blend-mode: normal"><g transform="translate(-0.88134,0.00174) scale(1.31282,1.31282)"><path d="M53.138,10.852c1.9067,0 3.5793,0.3727 5.018,1.118c1.456,0.7453 2.574,1.8113 3.354,3.198c0.7973,1.3693 1.196,2.964 1.196,4.784c0,1.82 -0.3987,3.4147 -1.196,4.784c-0.78,1.352 -1.898,2.4007 -3.354,3.146c-1.4387,0.7453 -3.1113,1.118 -5.018,1.118h-6.344v-18.148zM53.008,25.906c1.9067,0 3.38,-0.52 4.42,-1.56c1.04,-1.04 1.56,-2.5047 1.56,-4.394c0,-1.8893 -0.52,-3.3627 -1.56,-4.42c-1.04,-1.0747 -2.5133,-1.612 -4.42,-1.612h-2.574v11.986zM64.7547,21.746c0,-1.456 0.286,-2.7473 0.858,-3.874c0.5894,-1.1267 1.378,-1.9933 2.366,-2.6c1.0054,-0.6067 2.1234,-0.91 3.354,-0.91c1.0747,0 2.0107,0.2167 2.808,0.65c0.8147,0.4333 1.4647,0.9793 1.95,1.638v-2.054h3.666v14.404h-3.666v-2.106c-0.468,0.676 -1.118,1.2393 -1.95,1.69c-0.8146,0.4333 -1.7593,0.65 -2.834,0.65c-1.2133,0 -2.3226,-0.312 -3.328,-0.936c-0.988,-0.624 -1.7766,-1.4993 -2.366,-2.626c-0.572,-1.144 -0.858,-2.4527 -0.858,-3.926zM76.0907,21.798c0,-0.884 -0.1733,-1.638 -0.52,-2.262c-0.3466,-0.6413 -0.8146,-1.1267 -1.404,-1.456c-0.5893,-0.3467 -1.222,-0.52 -1.898,-0.52c-0.676,0 -1.3,0.1647 -1.872,0.494c-0.572,0.3293 -1.04,0.8147 -1.404,1.456c-0.3466,0.624 -0.52,1.3693 -0.52,2.236c0,0.8667 0.1734,1.6293 0.52,2.288c0.364,0.6413 0.832,1.1353 1.404,1.482c0.5894,0.3467 1.2134,0.52 1.872,0.52c0.676,0 1.3087,-0.1647 1.898,-0.494c0.5894,-0.3467 1.0574,-0.832 1.404,-1.456c0.3467,-0.6413 0.52,-1.404 0.52,-2.288zM89.0838,29.234c-1.1787,0 -2.236,-0.208 -3.172,-0.624c-0.936,-0.4333 -1.6813,-1.014 -2.236,-1.742c-0.5373,-0.728 -0.832,-1.534 -0.884,-2.418h3.666c0.0693,0.5547 0.338,1.014 0.806,1.378c0.4853,0.364 1.0833,0.546 1.794,0.546c0.6933,0 1.2307,-0.1387 1.612,-0.416c0.3987,-0.2773 0.598,-0.6327 0.598,-1.066c0,-0.468 -0.2427,-0.8147 -0.728,-1.04c-0.468,-0.2427 -1.222,-0.5027 -2.262,-0.78c-1.0747,-0.26 -1.9587,-0.5287 -2.652,-0.806c-0.676,-0.2773 -1.2653,-0.702 -1.768,-1.274c-0.4853,-0.572 -0.728,-1.3433 -0.728,-2.314c0,-0.7973 0.2253,-1.5253 0.676,-2.184c0.468,-0.6587 1.1267,-1.1787 1.976,-1.56c0.8667,-0.3813 1.8807,-0.572 3.042,-0.572c1.716,0 3.0853,0.4333 4.108,1.3c1.0227,0.8493 1.586,2.002 1.69,3.458h-3.484c-0.052,-0.572 -0.2947,-1.0227 -0.728,-1.352c-0.416,-0.3467 -0.9793,-0.52 -1.69,-0.52c-0.6587,0 -1.17,0.1213 -1.534,0.364c-0.3467,0.2427 -0.52,0.5807 -0.52,1.014c0,0.4853 0.2427,0.858 0.728,1.118c0.4853,0.2427 1.2393,0.494 2.262,0.754c1.04,0.26 1.898,0.5287 2.574,0.806c0.676,0.2773 1.2567,0.7107 1.742,1.3c0.5027,0.572 0.7627,1.3347 0.78,2.288c0,0.832 -0.234,1.5773 -0.702,2.236c-0.4507,0.6587 -1.1093,1.1787 -1.976,1.56c-0.8493,0.364 -1.846,0.546 -2.99,0.546zM106.112,14.388c1.092,0 2.062,0.2427 2.912,0.728c0.849,0.468 1.508,1.17 1.976,2.106c0.485,0.9187 0.728,2.028 0.728,3.328v8.45h-3.64v-7.956c0,-1.144 -0.286,-2.0193 -0.858,-2.626c-0.572,-0.624 -1.352,-0.936 -2.34,-0.936c-1.006,0 -1.803,0.312 -2.392,0.936c-0.572,0.6067 -0.858,1.482 -0.858,2.626v7.956h-3.6402v-19.24h3.6402v6.63c0.468,-0.624 1.092,-1.1093 1.872,-1.456c0.78,-0.364 1.646,-0.546 2.6,-0.546zM119.089,16.702c0.468,-0.6933 1.11,-1.2567 1.924,-1.69c0.832,-0.4333 1.777,-0.65 2.834,-0.65c1.231,0 2.34,0.3033 3.328,0.91c1.006,0.6067 1.794,1.4733 2.366,2.6c0.59,1.1093 0.884,2.4007 0.884,3.874c0,1.4733 -0.294,2.782 -0.884,3.926c-0.572,1.1267 -1.36,2.002 -2.366,2.626c-0.988,0.624 -2.097,0.936 -3.328,0.936c-1.074,0 -2.019,-0.208 -2.834,-0.624c-0.797,-0.4333 -1.438,-0.988 -1.924,-1.664v2.054h-3.64v-19.24h3.64zM126.707,21.746c0,-0.8667 -0.182,-1.612 -0.546,-2.236c-0.346,-0.6413 -0.814,-1.1267 -1.404,-1.456c-0.572,-0.3293 -1.196,-0.494 -1.872,-0.494c-0.658,0 -1.282,0.1733 -1.872,0.52c-0.572,0.3293 -1.04,0.8147 -1.404,1.456c-0.346,0.6413 -0.52,1.3953 -0.52,2.262c0,0.8667 0.174,1.6207 0.52,2.262c0.364,0.6413 0.832,1.1353 1.404,1.482c0.59,0.3293 1.214,0.494 1.872,0.494c0.676,0 1.3,-0.1733 1.872,-0.52c0.59,-0.3467 1.058,-0.8407 1.404,-1.482c0.364,-0.6413 0.546,-1.404 0.546,-2.288zM139.726,29.234c-1.386,0 -2.634,-0.3033 -3.744,-0.91c-1.109,-0.624 -1.984,-1.4993 -2.626,-2.626c-0.624,-1.1267 -0.936,-2.4267 -0.936,-3.9c0,-1.4733 0.321,-2.7733 0.962,-3.9c0.659,-1.1267 1.552,-1.9933 2.678,-2.6c1.127,-0.624 2.384,-0.936 3.77,-0.936c1.387,0 2.644,0.312 3.77,0.936c1.127,0.6067 2.011,1.4733 2.652,2.6c0.659,1.1267 0.988,2.4267 0.988,3.9c0,1.4733 -0.338,2.7733 -1.014,3.9c-0.658,1.1267 -1.56,2.002 -2.704,2.626c-1.126,0.6067 -2.392,0.91 -3.796,0.91zM139.726,26.062c0.659,0 1.274,-0.156 1.846,-0.468c0.59,-0.3293 1.058,-0.8147 1.404,-1.456c0.347,-0.6413 0.52,-1.4213 0.52,-2.34c0,-1.3693 -0.364,-2.418 -1.092,-3.146c-0.71,-0.7453 -1.586,-1.118 -2.626,-1.118c-1.04,0 -1.915,0.3727 -2.626,1.118c-0.693,0.728 -1.04,1.7767 -1.04,3.146c0,1.3693 0.338,2.4267 1.014,3.172c0.694,0.728 1.56,1.092 2.6,1.092zM149.234,21.746c0,-1.456 0.286,-2.7473 0.858,-3.874c0.59,-1.1267 1.378,-1.9933 2.366,-2.6c1.006,-0.6067 2.124,-0.91 3.354,-0.91c1.075,0 2.011,0.2167 2.808,0.65c0.815,0.4333 1.465,0.9793 1.95,1.638v-2.054h3.666v14.404h-3.666v-2.106c-0.468,0.676 -1.118,1.2393 -1.95,1.69c-0.814,0.4333 -1.759,0.65 -2.834,0.65c-1.213,0 -2.322,-0.312 -3.328,-0.936c-0.988,-0.624 -1.776,-1.4993 -2.366,-2.626c-0.572,-1.144 -0.858,-2.4527 -0.858,-3.926zM160.57,21.798c0,-0.884 -0.173,-1.638 -0.52,-2.262c-0.346,-0.6413 -0.814,-1.1267 -1.404,-1.456c-0.589,-0.3467 -1.222,-0.52 -1.898,-0.52c-0.676,0 -1.3,0.1647 -1.872,0.494c-0.572,0.3293 -1.04,0.8147 -1.404,1.456c-0.346,0.624 -0.52,1.3693 -0.52,2.236c0,0.8667 0.174,1.6293 0.52,2.288c0.364,0.6413 0.832,1.1353 1.404,1.482c0.59,0.3467 1.214,0.52 1.872,0.52c0.676,0 1.309,-0.1647 1.898,-0.494c0.59,-0.3467 1.058,-0.832 1.404,-1.456c0.347,-0.6413 0.52,-1.404 0.52,-2.288zM171.691,16.832c0.469,-0.7627 1.075,-1.3607 1.821,-1.794c0.762,-0.4333 1.629,-0.65 2.599,-0.65v3.822h-0.962c-1.143,0 -2.01,0.2687 -2.599,0.806c-0.573,0.5373 -0.859,1.4733 -0.859,2.808v7.176h-3.64v-14.404h3.64zM177.887,21.746c0,-1.456 0.286,-2.7473 0.858,-3.874c0.59,-1.1267 1.387,-1.9933 2.392,-2.6c1.006,-0.6067 2.124,-0.91 3.354,-0.91c0.936,0 1.829,0.208 2.678,0.624c0.85,0.3987 1.526,0.936 2.028,1.612v-6.838h3.692v19.24h-3.692v-2.132c-0.45,0.7107 -1.083,1.2827 -1.898,1.716c-0.814,0.4333 -1.759,0.65 -2.834,0.65c-1.213,0 -2.322,-0.312 -3.328,-0.936c-1.005,-0.624 -1.802,-1.4993 -2.392,-2.626c-0.572,-1.144 -0.858,-2.4527 -0.858,-3.926zM189.223,21.798c0,-0.884 -0.173,-1.638 -0.52,-2.262c-0.346,-0.6413 -0.814,-1.1267 -1.404,-1.456c-0.589,-0.3467 -1.222,-0.52 -1.898,-0.52c-0.676,0 -1.3,0.1647 -1.872,0.494c-0.572,0.3293 -1.04,0.8147 -1.404,1.456c-0.346,0.624 -0.52,1.3693 -0.52,2.236c0,0.8667 0.174,1.6293 0.52,2.288c0.364,0.6413 0.832,1.1353 1.404,1.482c0.59,0.3467 1.214,0.52 1.872,0.52c0.676,0 1.309,-0.1647 1.898,-0.494c0.59,-0.3467 1.058,-0.832 1.404,-1.456c0.347,-0.6413 0.52,-1.404 0.52,-2.288z"></path><path d="M18.5003,35.8876c-1.0329,0 -2.0813,-0.2312 -2.8983,-0.7092l-8.47916,-4.887c-3.45333,-2.328 -3.66917,-2.6825 -3.66917,-6.3363v-8.9108c0,-3.6538 0.20042,-4.0084 3.59209,-6.30543l8.54074,-4.93334c1.6188,-0.94041 4.1625,-0.94041 5.7813,0l8.51,4.9025c3.4533,2.32787 3.6692,2.68247 3.6692,6.33627v8.8954c0,3.6537 -0.2005,4.0083 -3.5921,6.3054l-8.5409,4.9333c-0.8325,0.478 -1.8808,0.7092 -2.9137,0.7092zM18.5003,5.42428c-0.6475,0 -1.2796,0.12334 -1.7267,0.38542l-8.47909,4.9025c-2.51292,1.6958 -2.51292,1.6958 -2.51292,4.3321v8.8954c0,2.6362 0,2.6362 2.57458,4.3783l8.41743,4.8563c0.9096,0.5241 2.5592,0.5241 3.4688,0l8.4791,-4.9025c2.4975,-1.6959 2.4975,-1.6959 2.4975,-4.3321v-8.8954c0,-2.6363 0,-2.6363 -2.5745,-4.3784l-8.4175,-4.8562c-0.4471,-0.26208 -1.0792,-0.38542 -1.7267,-0.38542z"></path><path d="M18.5,25.2812c-3.1912,0 -5.7812,-2.59 -5.7812,-5.7812c0,-3.1912 2.59,-5.7812 5.7812,-5.7812c3.1912,0 5.7812,2.59 5.7812,5.7812c0,3.1912 -2.59,5.7812 -5.7812,5.7812zM18.5,16.0312c-1.9117,0 -3.4688,1.5571 -3.4688,3.4688c0,1.9117 1.5571,3.4688 3.4688,3.4688c1.9117,0 3.4688,-1.5571 3.4688,-3.4688c0,-1.9117 -1.5571,-3.4688 -3.4688,-3.4688z"></path></g></g></svg>